<svg width="32" height="32" viewBox="0 0 32 32" fill="none" xmlns="http://www.w3.org/2000/svg">
  <rect width="32" height="32" rx="6" fill="#6366f1"/>
  <g transform="translate(6, 6)">
    <!-- QR Code pattern -->
    <rect x="0" y="0" width="6" height="6" fill="white" rx="1"/>
    <rect x="1" y="1" width="4" height="4" fill="#6366f1" rx="0.5"/>
    <rect x="2" y="2" width="2" height="2" fill="white"/>
    
    <rect x="14" y="0" width="6" height="6" fill="white" rx="1"/>
    <rect x="15" y="1" width="4" height="4" fill="#6366f1" rx="0.5"/>
    <rect x="16" y="2" width="2" height="2" fill="white"/>
    
    <rect x="0" y="14" width="6" height="6" fill="white" rx="1"/>
    <rect x="1" y="15" width="4" height="4" fill="#6366f1" rx="0.5"/>
    <rect x="2" y="16" width="2" height="2" fill="white"/>
    
    <!-- Pattern dots -->
    <rect x="8" y="2" width="2" height="2" fill="white"/>
    <rect x="12" y="2" width="2" height="2" fill="white"/>
    <rect x="8" y="6" width="2" height="2" fill="white"/>
    <rect x="12" y="6" width="2" height="2" fill="white"/>
    <rect x="2" y="8" width="2" height="2" fill="white"/>
    <rect x="6" y="8" width="2" height="2" fill="white"/>
    <rect x="10" y="8" width="2" height="2" fill="white"/>
    <rect x="14" y="8" width="2" height="2" fill="white"/>
    <rect x="18" y="8" width="2" height="2" fill="white"/>
    <rect x="8" y="10" width="2" height="2" fill="white"/>
    <rect x="12" y="10" width="2" height="2" fill="white"/>
    <rect x="16" y="10" width="2" height="2" fill="white"/>
    <rect x="8" y="14" width="2" height="2" fill="white"/>
    <rect x="12" y="14" width="2" height="2" fill="white"/>
    <rect x="16" y="14" width="2" height="2" fill="white"/>
    <rect x="8" y="18" width="2" height="2" fill="white"/>
    <rect x="12" y="18" width="2" height="2" fill="white"/>
    <rect x="16" y="18" width="2" height="2" fill="white"/>
  </g>
</svg>